<?xml version="1.0" encoding="utf-8"?>

<!DOCTYPE svg PUBLIC "-//W3C//DTD SVG 1.1//EN" "http://www.w3.org/Graphics/SVG/1.1/DTD/svg11.dtd">
<!-- Uploaded to: SVG Repo, www.svgrepo.com, Generator: SVG Repo Mixer Tools -->
<svg fill=""  version="1.1" id="_x32_" xmlns="http://www.w3.org/2000/svg" xmlns:xlink="http://www.w3.org/1999/xlink" 
	 width="800px" height="800px" viewBox="0 0 512 512"  xml:space="preserve">

<g>
	<path class="st0" d="M215.078,8.156c-9.297,0-16.828,7.531-16.828,16.844v84.188h-27.203V23.328
		C171.047,10.438,160.609,0,147.734,0c-12.891,0-23.328,10.438-23.328,23.328v85.859H97.219V25c0-9.313-7.547-16.844-16.844-16.844
		S63.531,15.688,63.531,25v107.5h0.313c2.563,19.625,22.344,38.313,51.484,46.375v294.281c0,17.875,14.516,32.375,32.406,32.375
		c17.875,0,32.359-14.5,32.359-32.375V178.094c25.313-7.219,48.906-22.516,51.547-45.594h0.266V25
		C231.906,15.688,224.375,8.156,215.078,8.156z"/>
	<path class="st0" d="M363.266,16.031c-18.797-6.375-47.188-10.188-47.188,18.656c0,0,0,419.594,0,443.375
		c0,23.75,13.578,33.938,30.547,33.938s30.531-10.188,30.531-30.563c0-20.344,0-185.281,0-185.281s35.656,0,50.938,0
		s20.375-18.688,20.375-32.281c0,0,0-50.969,0-93.406C448.469,78.281,403.031,29.563,363.266,16.031z"/>
</g>
</svg>